<?xml version="1.0" encoding="UTF-8" standalone="no"?>
<!-- Created with Inkscape (http://www.inkscape.org/) -->

<svg
   width="52.916664mm"
   height="52.959366mm"
   viewBox="0 0 52.916664 52.959366"
   version="1.1"
   id="svg1"
   sodipodi:docname="icon.svg"
   inkscape:version="1.3 (0e150ed6c4, 2023-07-21)"
   xmlns:inkscape="http://www.inkscape.org/namespaces/inkscape"
   xmlns:sodipodi="http://sodipodi.sourceforge.net/DTD/sodipodi-0.dtd"
   xmlns="http://www.w3.org/2000/svg"
   xmlns:svg="http://www.w3.org/2000/svg">
  <sodipodi:namedview
     id="namedview1"
     pagecolor="#ffffff"
     bordercolor="#111111"
     borderopacity="1"
     inkscape:showpageshadow="0"
     inkscape:pageopacity="0"
     inkscape:pagecheckerboard="true"
     inkscape:deskcolor="#d1d1d1"
     inkscape:document-units="mm"
     showguides="true"
     inkscape:export-bgcolor="#ffffff00"
     inkscape:zoom="1.4360358"
     inkscape:cx="126.04143"
     inkscape:cy="104.10604"
     inkscape:window-width="1920"
     inkscape:window-height="1009"
     inkscape:window-x="-8"
     inkscape:window-y="-8"
     inkscape:window-maximized="1"
     inkscape:current-layer="layer1">
    <sodipodi:guide
       position="131.22513,301.76321"
       orientation="1,0"
       id="guide1"
       inkscape:locked="false" />
    <sodipodi:guide
       position="187.53393,301.88429"
       orientation="1,0"
       id="guide2"
       inkscape:locked="false" />
  </sodipodi:namedview>
  <defs
     id="defs1" />
  <g
     inkscape:label="Layer 1"
     inkscape:groupmode="layer"
     id="layer1">
    <path
       id="path16"
       style="fill:#c1121f;fill-opacity:1;fill-rule:nonzero;stroke:none;stroke-width:0.0331654"
       d="m -3.0764649e-6,0 v 2.347004 c 0,0 2.1785949764649,-1.316119 4.1751509764649,-1.542969 0.726655,-0.08258 1.543111,-0.1513 2.373239,-0.232224 0.04278,-0.0039 0.08589,0.01001 0.118054,0.03887 0.03217,0.02918 0.05004,0.07057 0.05004,0.113682 v 0.262344 c 0,0.07893 -0.05952,0.144434 -0.138459,0.152062 C 5.7376109,1.220689 4.9104259,1.29033 4.1751479,1.373907 2.1785919,1.600759 -3.0764648e-6,2.916877 -3.0764648e-6,2.916877 v 3.087396 c 0,0 2.1785949764648,-1.059118 4.1751509764648,-1.285969 1.99689,-0.226852 4.674388,-0.349505 6.4444251,-0.900714 1.769705,-0.55154 2.813392,-1.126135 2.813392,-1.126135 V 4e-6 Z M 15.95438,0 v 1.354956 l 8.940575,16.420286 0.453757,-0.571813 V 8.172977 L 20.826685,0 Z m 5.486383,0 3.454192,6.343372 0.453757,-0.571811 V 0 Z m 6.041195,0 V 4.302922 L 33.018374,1.008565 V 0 Z m 6.238436,0 V 0.738449 L 34.961664,0 Z m 9.19708,0 c 1.73888,0.417721 4.03722,0.55443 5.82355,0.757395 1.9969,0.227184 4.17564,1.285485 4.17564,1.285485 V 0 Z m -3.43426,0.03692 v 6.604745 c 0,0 1.04417,0.574926 2.81388,1.126134 1.77003,0.551209 4.44738,0.674349 6.44393,0.9012 1.9969,0.227183 4.17564,1.285484 4.17564,1.285484 V 6.867086 c 0,0 -2.17874,-1.315632 -4.17564,-1.542483 -0.73494,-0.08358 -1.56197,-0.153218 -2.40239,-0.235138 -0.0786,-0.0076 -0.13895,-0.07361 -0.13895,-0.152548 V 4.675061 c 0,-0.04344 0.0189,-0.0845 0.051,-0.113682 0.0319,-0.02885 0.0745,-0.04317 0.11758,-0.03887 0.83012,0.0806 1.64643,0.149155 2.37275,0.231737 1.9969,0.226851 4.17564,1.54297 4.17564,1.54297 V 3.478478 c 0,0 -2.17874,-1.316117 -4.17564,-1.542969 -1.99655,-0.227182 -4.6739,-0.349658 -6.44393,-0.901199 -1.76971,-0.551209 -2.81388,-0.997392 -2.81388,-0.997392 z m -2.52093,0.02526 -3.24189,1.962719 v 6.628065 l 3.24189,-1.928712 z m -3.94391,2.174538 -5.536416,3.352654 v 6.628065 L 33.018374,8.923081 Z M 15.95438,2.625861 V 12.78682 l 8.940575,16.419802 0.453757,-0.57181 v -9.02997 z m -2.521415,1.372446 c 0,0 -1.043687,0.446183 -2.813392,0.997391 C 8.8495359,5.546908 6.1720379,5.669715 4.1751479,5.896898 2.1785919,6.123749 -3.0764649e-6,7.439868 -3.0764649e-6,7.439868 v 2.818736 c 0,0 2.1785949764649,-1.316118 4.1751509764649,-1.542969 0.726655,-0.08258 1.543111,-0.151299 2.373239,-0.232223 0.04278,-0.0039 0.08589,0.01001 0.118054,0.03887 0.03217,0.02885 0.05004,0.07057 0.05004,0.113683 v 0.262344 c 0,0.07893 -0.05952,0.144433 -0.138459,0.152062 -0.840411,0.08192 -1.667596,0.15156 -2.402874,0.235137 C 2.1785919,9.51236 -3.0764649e-6,10.828478 -3.0764649e-6,10.828478 v 3.087396 c 0,0 2.1785949764649,-1.059118 4.1751509764649,-1.285969 1.99689,-0.226852 4.674388,-0.349505 6.4444251,-0.900713 1.769705,-0.551542 2.813392,-1.126135 2.813392,-1.126135 z m 26.050249,3.950216 v 6.604745 c 0,0 1.04417,0.574925 2.81388,1.126134 1.77003,0.551209 4.44738,0.674348 6.44393,0.901199 1.9969,0.226851 4.17564,1.285481 4.17564,1.285481 v -3.087394 c 0,0 -2.17874,-1.315632 -4.17564,-1.542483 -0.73494,-0.08358 -1.56197,-0.153219 -2.40239,-0.235137 -0.0786,-0.0076 -0.13895,-0.07361 -0.13895,-0.152548 v -0.262339 c 0,-0.04311 0.0189,-0.08402 0.051,-0.113197 0.0319,-0.02919 0.0745,-0.04317 0.11758,-0.03887 0.83012,0.08026 1.64643,0.149155 2.37275,0.231736 1.9969,0.226852 4.17564,1.54297 4.17564,1.54297 v -2.818737 c 0,0 -2.17874,-1.316272 -4.17564,-1.543456 -1.99655,-0.226851 -4.6739,-0.349505 -6.44393,-0.900713 -1.76971,-0.551208 -2.81388,-0.997391 -2.81388,-0.997391 z m -2.52093,0.02818 -3.24189,1.962719 v 6.627579 l 3.24189,-1.928226 z m -3.94391,2.174051 -5.536416,3.353142 v 6.628066 l 5.536416,-3.294358 z m -19.585409,1.759161 c 0,0 -1.043687,0.446183 -2.813392,0.997392 C 8.8495359,13.458515 6.1720379,13.581322 4.1751479,13.808506 2.1785919,14.035357 -3.0764649e-6,15.35099 -3.0764649e-6,15.35099 v 2.819222 c 0,0 2.1785949764649,-1.316118 4.1751509764649,-1.542969 0.726655,-0.08258 1.543111,-0.151299 2.373239,-0.232223 0.04278,-0.0039 0.08589,0.01001 0.118054,0.03887 0.03217,0.02885 0.05004,0.07057 0.05004,0.113682 v 0.261858 c 0,0.07926 -0.05952,0.14492 -0.138459,0.152548 -0.840411,0.08192 -1.667596,0.151561 -2.402874,0.235138 C 2.1785919,17.423967 -3.0764648e-6,18.740082 -3.0764648e-6,18.740082 v 3.08691 c 0,0 2.1785949764648,-1.05863 4.1751509764648,-1.28548 1.99689,-0.22685 4.674388,-0.3495 6.4444251,-0.90071 1.769705,-0.55154 2.813392,-1.12614 2.813392,-1.12614 z m 2.521415,2.147817 v 10.16047 l 8.940575,16.42029 0.453757,-0.57181 v -9.03045 z m 23.528834,1.802399 v 6.604741 c 0,0 1.04417,0.5746 2.81388,1.12614 1.77003,0.55121 4.44738,0.67435 6.44393,0.9012 1.9969,0.22685 4.17564,1.28548 4.17564,1.28548 v -3.08739 c 0,0 -2.17874,-1.31579 -4.17564,-1.54297 -0.73494,-0.0832 -1.56197,-0.15274 -2.40239,-0.23466 -0.0786,-0.008 -0.13895,-0.0736 -0.13895,-0.15254 v -0.26235 c 0,-0.0431 0.0189,-0.084 0.051,-0.11319 0.0319,-0.0292 0.0745,-0.0433 0.11758,-0.0393 0.83012,0.0806 1.64643,0.14964 2.37275,0.23222 1.9969,0.22685 4.17564,1.54297 4.17564,1.54297 v -2.81874 c 0,0 -2.17874,-1.3166 -4.17564,-1.54345 -1.99655,-0.226856 -4.6739,-0.349509 -6.44393,-0.900718 -1.76971,-0.551208 -2.81388,-0.997391 -2.81388,-0.997391 z m -2.52093,0.03061 -3.24189,1.962721 v 6.62806 l 3.24189,-1.92822 z m -3.94391,2.175021 -5.536416,3.35266 v 6.62806 l 5.536416,-3.29435 z m -19.585409,1.75576 c 0,0 -1.043687,0.44619 -2.813392,0.99739 -1.7700371,0.55121 -4.4475351,0.67387 -6.4444251,0.90072 -1.996556,0.22718 -4.1751509764648,1.54297 -4.1751509764648,1.54297 v 2.81922 c 0,0 2.1785949764648,-1.31612 4.1751509764648,-1.54297 0.726655,-0.0826 1.543111,-0.15163 2.373239,-0.23222 0.04278,-0.004 0.08589,0.0102 0.118054,0.0393 0.03217,0.0289 0.05004,0.0701 0.05004,0.11319 v 0.26186 c 0,0.0793 -0.05952,0.14492 -0.138459,0.15255 -0.840411,0.0819 -1.667596,0.15156 -2.402874,0.23514 -1.996556,0.22685 -4.1751509764647,1.54297 -4.1751509764647,1.54297 v 3.08691 c 0,0 2.1785949764647,-1.05863 4.1751509764647,-1.28549 1.99689,-0.22685 4.674388,-0.34917 6.4444251,-0.90071 1.769705,-0.55121 2.813392,-1.12613 2.813392,-1.12613 z m 26.050249,3.95022 v 6.60474 c 0,0 1.04417,0.57493 2.81388,1.12614 1.77003,0.55154 4.44738,0.67435 6.44393,0.9012 1.9969,0.22685 4.17564,1.28548 4.17564,1.28548 v -3.0874 c 0,0 -2.17874,-1.31563 -4.17564,-1.54248 -0.73494,-0.0836 -1.56197,-0.15322 -2.40239,-0.23514 -0.0786,-0.008 -0.13895,-0.0733 -0.13895,-0.15254 v -0.26235 c 0,-0.0431 0.0189,-0.084 0.051,-0.1132 0.0319,-0.0292 0.0745,-0.0437 0.11758,-0.0393 0.83012,0.0806 1.64643,0.14964 2.37275,0.23223 1.9969,0.22685 4.17564,1.54345 4.17564,1.54345 v -2.81922 c 0,0 -2.17874,-1.31661 -4.17564,-1.54346 -1.99655,-0.22685 -4.6739,-0.3495 -6.44393,-0.90071 -1.76971,-0.55121 -2.81388,-0.99739 -2.81388,-0.99739 z m -2.52093,0.0335 -3.24189,1.96272 v 6.62806 l 3.24189,-1.92822 z m -21.007904,1.68386 v 10.16095 l 8.940575,16.4198 0.453757,-0.57181 v -9.02997 z m 17.063994,0.49068 -5.536416,3.35314 v 6.62806 l 5.536416,-3.29484 z m -19.585409,1.75284 c 0,0 -1.043687,0.44667 -2.813392,0.99788 -1.7700371,0.55121 -4.4475351,0.67386 -6.4444251,0.90071 -1.996556,0.22685 -4.1751509764647,1.54297 -4.1751509764647,1.54297 v 2.81923 c 0,0 2.1785949764647,-1.31613 4.1751509764647,-1.54298 0.726655,-0.0826 1.543111,-0.15163 2.373239,-0.23222 0.04278,-0.004 0.08589,0.0102 0.118054,0.0393 0.03217,0.0288 0.05004,0.0701 0.05004,0.1132 v 0.26185 c 0,0.0793 -0.05952,0.14492 -0.138459,0.15255 -0.840411,0.0819 -1.667596,0.1519 -2.402874,0.23514 -1.996556,0.22718 -4.1751509764647,1.54297 -4.1751509764647,1.54297 v 3.08691 c 0,0 2.1785949764647,-1.05863 4.1751509764647,-1.28548 1.99689,-0.22685 4.674388,-0.34918 6.4444251,-0.90072 1.769705,-0.55121 2.813392,-1.12662 2.813392,-1.12662 z m 26.050249,3.9507 v 6.60475 c 0,0 1.04417,0.57492 2.81388,1.12613 1.77003,0.55121 4.44738,0.67435 6.44393,0.9012 1.9969,0.22685 4.17564,1.28549 4.17564,1.28549 v -3.0874 c 0,0 -2.17874,-1.31578 -4.17564,-1.54297 -0.73494,-0.0836 -1.56197,-0.15274 -2.40239,-0.23465 -0.0786,-0.008 -0.13895,-0.0733 -0.13895,-0.15255 v -0.26235 c 0,-0.0431 0.0189,-0.084 0.051,-0.11319 0.0319,-0.0291 0.0745,-0.0437 0.11758,-0.0393 0.83012,0.0806 1.64643,0.14964 2.37275,0.23222 1.9969,0.22685 4.17564,1.54345 4.17564,1.54345 v -2.81922 c 0,0 -2.17874,-1.3166 -4.17564,-1.54345 -1.99655,-0.22685 -4.6739,-0.34951 -6.44393,-0.90072 -1.76971,-0.55121 -2.81388,-0.99739 -2.81388,-0.99739 z m -2.52093,0.0364 -3.24189,1.96272 v 6.62806 l 3.24189,-1.92871 z m -3.94391,2.17454 -5.536416,3.35266 v 6.62805 l 5.536416,-3.29435 z m -19.585409,1.74993 c 0,0 -1.043687,0.44634 -2.813392,0.99787 -1.7700371,0.55121 -4.4475351,0.67387 -6.4444251,0.90072 -1.996556,0.22685 -4.1751509764647,1.54297 -4.1751509764647,1.54297 v 2.81922 c 0,0 2.1785949764647,-1.31612 4.1751509764647,-1.54297 0.726655,-0.0825 1.543111,-0.15163 2.373239,-0.23222 0.04278,-0.005 0.08589,0.01 0.118054,0.0389 0.03217,0.0289 0.05004,0.0702 0.05004,0.11368 v 0.26186 c 0,0.0793 -0.05952,0.14491 -0.138459,0.15254 -0.840411,0.0819 -1.667596,0.15156 -2.402874,0.23514 -1.996556,0.22719 -4.1751509764647,1.54297 -4.1751509764647,1.54297 v 3.08691 c 0,0 2.1785949764647,-1.05863 4.1751509764647,-1.28548 1.99689,-0.22719 4.674388,-0.3495 6.4444251,-0.90072 1.769705,-0.55121 2.813392,-1.12662 2.813392,-1.12662 z m 2.521415,1.27674 v 10.16047 l 3.200592,5.87796 h 5.673426 z m 23.528834,2.67396 v 6.60474 c 0,0 1.04417,0.57493 2.81388,1.12614 1.77003,0.5512 4.44738,0.67402 6.44393,0.9012 1.9969,0.22685 4.17564,1.28548 4.17564,1.28548 v -3.08739 c 0,0 -2.17874,-1.3158 -4.17564,-1.54298 -0.73494,-0.0836 -1.56197,-0.15272 -2.40239,-0.23464 -0.0786,-0.008 -0.13895,-0.0733 -0.13895,-0.15256 v -0.26234 c 0,-0.0431 0.0189,-0.084 0.051,-0.1132 0.0319,-0.0291 0.0745,-0.0437 0.11758,-0.0393 0.83012,0.0806 1.64643,0.14964 2.37275,0.23222 1.9969,0.22685 4.17564,1.54296 4.17564,1.54296 v -2.81873 c 0,0 -2.17874,-1.3166 -4.17564,-1.54345 -1.99655,-0.22686 -4.6739,-0.34951 -6.44393,-0.90073 -1.76971,-0.55153 -2.81388,-0.99738 -2.81388,-0.99738 z m -2.52093,0.0393 -3.24189,1.96271 v 6.62807 l 3.24189,-1.92871 z m -3.94391,2.17453 -5.536416,3.35266 v 6.62856 l 5.536416,-3.29485 z m -19.585409,1.74702 c 0,0 -1.043687,0.44619 -2.813392,0.99739 -1.7700371,0.55154 -4.4475351,0.67435 -6.4444251,0.9012 -1.996556,0.22685 -4.1751509764647,1.54298 -4.1751509764647,1.54298 v 2.81922 c 0,0 2.1785949764647,-1.31612 4.1751509764647,-1.54297 0.726655,-0.0826 1.543111,-0.15163 2.373239,-0.23223 0.04278,-0.005 0.08589,0.01 0.118054,0.0389 0.03217,0.0292 0.05004,0.0703 0.05004,0.11369 v 0.26186 c 0,0.0793 -0.05952,0.14459 -0.138459,0.15255 -0.840411,0.0819 -1.667596,0.15156 -2.402874,0.23513 -1.996556,0.22685 -4.1751509764647,1.54297 -4.1751509764647,1.54297 v 2.57292 H 1.2339849 c 0.812335,-0.30963 1.864643,-0.64918 2.941163,-0.77149 1.99689,-0.22718 4.674388,-0.34951 6.4444251,-0.90072 1.769705,-0.55119 2.813392,-1.12661 2.813392,-1.12661 z m 26.050249,3.9507 v 5.45287 h 10.13374 c -0.29137,-0.0719 -0.58496,-0.13262 -0.87593,-0.16567 -0.73494,-0.0836 -1.56197,-0.15307 -2.40239,-0.23466 -0.0786,-0.008 -0.13895,-0.0736 -0.13895,-0.15254 v -0.26234 c 0,-0.0431 0.0189,-0.0844 0.051,-0.1132 0.0319,-0.0292 0.0745,-0.0437 0.11758,-0.0394 0.83012,0.0806 1.64643,0.14965 2.37275,0.23223 0.88223,0.10022 1.77476,0.41754 2.52432,0.73554 h 1.65132 v -2.01179 c 0,0 -2.17874,-1.31612 -4.17564,-1.54298 -1.99655,-0.22685 -4.6739,-0.34917 -6.44393,-0.90071 -1.76971,-0.5512 -2.81388,-0.99739 -2.81388,-0.99739 z m -2.52093,0.0423 -3.24189,1.96272 v 3.44788 h 3.24189 z m -21.007904,0.80355 v 4.60705 h 2.549106 z m 17.063994,1.37099 -5.34403,3.23606 h 5.34403 z m -19.585409,1.74409 c 0,0 -1.043687,0.44618 -2.813392,0.9974 -0.7359231,0.22931 -1.6408051,0.37525 -2.5763131,0.49457 h 5.3897051 z"
       inkscape:export-filename="tire_ico.svg"
       inkscape:export-xdpi="96"
       inkscape:export-ydpi="96" />
  </g>
</svg>
